<svg class="icon-svg" width="56" height="32" viewBox="0 0 56 32"><path fill="#6fa9d1" d="M28.027 15.719c.084-1.704 5.589-2.988 4.278-4.308-2.426-2.443-6.309-2.496-8.672-.116s-2.31 6.29.115 8.733c2.426 2.443 6.309 2.496 8.672.116 1.087-1.095-4.463-2.978-4.393-4.425z"></path><path fill="#e0e0e0" d="M28.07 0c-18.414 0-28.07 13.673-28.07 15.842s9.656 15.842 28.07 15.842 28.07-13.673 28.07-15.842-9.656-15.842-28.07-15.842zm0 28.029c-6.891 0-12.477-5.457-12.477-12.187s5.586-12.187 12.477-12.187 12.477 5.457 12.477 12.187-5.586 12.187-12.477 12.187z"></path></svg>